<svg width="32" height="32" viewBox="0 0 32 32" fill="none" xmlns="http://www.w3.org/2000/svg">
<path d="M25.2381 18.0926H18.0952V25.2354C18.0952 25.6143 17.9447 25.9777 17.6768 26.2456C17.4089 26.5135 17.0455 26.664 16.6667 26.664C16.2878 26.664 15.9244 26.5135 15.6565 26.2456C15.3886 25.9777 15.2381 25.6143 15.2381 25.2354V18.0926H8.09524C7.71635 18.0926 7.35299 17.9421 7.08508 17.6742C6.81717 17.4062 6.66666 17.0429 6.66666 16.664C6.66666 16.2851 6.81717 15.9218 7.08508 15.6539C7.35299 15.3859 7.71635 15.2354 8.09524 15.2354H15.2381V8.09257C15.2381 7.71369 15.3886 7.35033 15.6565 7.08242C15.9244 6.81451 16.2878 6.664 16.6667 6.664C17.0455 6.664 17.4089 6.81451 17.6768 7.08242C17.9447 7.35033 18.0952 7.71369 18.0952 8.09257V15.2354H25.2381C25.617 15.2354 25.9803 15.3859 26.2482 15.6539C26.5162 15.9218 26.6667 16.2851 26.6667 16.664C26.6667 17.0429 26.5162 17.4062 26.2482 17.6742C25.9803 17.9421 25.617 18.0926 25.2381 18.0926Z" fill="#383838"/>
</svg>
